<svg xmlns="http://www.w3.org/2000/svg" height="24" fill="white" viewBox="0 -960 960 960" width="24"><path d="m364.308-489.693 91.384-91.615-82.153-82.384-46.308 46.307-28.308-28.308L345-692l-78.077-78.077-91.615 91.615 189 188.769Zm313.384 313.616 91.616-91.615-78.077-78.077-46.308 46.077L616.615-328l46.077-46.308-81.615-81.384-91.384 91.384 187.999 188.231ZM690.923-760l69.308 69.308L690.923-760ZM286.154-160H160v-126.154l175.769-175.769L120-678.462l146.923-146.923 217.539 216.769 178.692-178.923q6.615-6.615 13.923-9.538T692.692-800q8.308 0 15.616 2.923t13.923 9.538l65.308 67.846q6.615 6.616 9.154 13.924 2.538 7.307 2.538 15.615t-2.538 15.116q-2.539 6.807-9.154 13.423L610.385-483.462l215 216.539L678.462-120 461.923-335.769 286.154-160ZM200-200h69.077l392.769-392.538-69.308-69.308L200-269.077V-200Zm427.692-427.461-35.154-34.385 69.308 69.308-34.154-34.923Z"/></svg>