<svg xmlns="http://www.w3.org/2000/svg" height="24" fill="white" viewBox="0 -960 960 960" width="24"><path d="M70.769-181.538v-40h818.462v40H70.769Zm113.846-80q-27.615 0-46.115-18.5-18.5-18.5-18.5-46.116v-390.769q0-27.616 18.5-46.116t46.115-18.5h590.77q27.615 0 46.115 18.5 18.5 18.5 18.5 46.116v390.769q0 27.616-18.5 46.116t-46.115 18.5h-590.77Zm0-40.001h590.77q9.23 0 16.923-7.692Q800-316.923 800-326.154v-390.769q0-9.231-7.692-16.923-7.693-7.693-16.923-7.693h-590.77q-9.23 0-16.923 7.693Q160-726.154 160-716.923v390.769q0 9.231 7.692 16.923 7.693 7.692 16.923 7.692Zm-24.615 0v-440 440Z"/></svg>